HIERARCHY
ROOT Hips
{
  OFFSET 1.44925e-005 102.336 -0.101585
  CHANNELS 6 Xposition Yposition Zposition Zrotation Xrotation Yrotation
  JOINT LeftUpLeg
  {
    OFFSET 8.9458 -8.66707 0.101652
    CHANNELS 3 Zrotation Xrotation Yrotation
    JOINT LeftLeg
    {
      OFFSET 0 -44.4227 1.3727
      CHANNELS 3 Zrotation Xrotation Yrotation
      JOINT LeftFoot
      {
        OFFSET -0.253549 -42.0924 -1.46059
        CHANNELS 3 Zrotation Xrotation Yrotation
        JOINT LeftToes
        {
          OFFSET -0.04 -4.41509 8.4991
          CHANNELS 3 Zrotation Xrotation Yrotation
          End Site
          {
            OFFSET 0.08 -0.047448 9.77979
          }
        }
      }
    }
  }
  JOINT Spine
  {
    OFFSET 0 11.8905 0
    CHANNELS 3 Zrotation Xrotation Yrotation
    JOINT Spine1
    {
      OFFSET 0 25.6574 0.127663
      CHANNELS 3 Zrotation Xrotation Yrotation
      JOINT RightShoulder
      {
        OFFSET -8.99 -0.362252 -0.22
        CHANNELS 3 Zrotation Xrotation Yrotation
        JOINT RightArm
        {
          OFFSET -10.2827 -0.00338 0.322123
          CHANNELS 3 Zrotation Xrotation Yrotation
          JOINT RightForeArm
          {
            OFFSET -26.364 0.099144 -1.42434
            CHANNELS 3 Zrotation Xrotation Yrotation
            JOINT RightHand
            {
              OFFSET -22.0324 0.085362 1.02216
              CHANNELS 3 Zrotation Xrotation Yrotation
              End Site
              {
                OFFSET -13.3284 -0.6 1.50291
              }
            }
          }
        }
      }
      JOINT LeftShoulder1
      {
        OFFSET 8.99 -0.362252 -0.22
        CHANNELS 3 Zrotation Xrotation Yrotation
        JOINT LeftArm
        {
          OFFSET 10.2827 -0.00337999 0.322123
          CHANNELS 3 Zrotation Xrotation Yrotation
          JOINT LeftForeArm
          {
            OFFSET 26.2597 0.099144 -1.42434
            CHANNELS 3 Zrotation Xrotation Yrotation
            JOINT LeftHand
            {
              OFFSET 22.0902 0.085362 1.02216
              CHANNELS 3 Zrotation Xrotation Yrotation
              End Site
              {
                OFFSET 13.419 -0.6 1.50291
              }
            }
          }
        }
      }
      JOINT Head
      {
        OFFSET 0 8.73416 0.011341
        CHANNELS 3 Zrotation Xrotation Yrotation
        End Site
        {
          OFFSET -0.29 12.7742 2.51395
        }
      }
    }
  }
  JOINT RightUpLeg
  {
    OFFSET -8.9458 -8.66707 0.101652
    CHANNELS 3 Zrotation Xrotation Yrotation
    JOINT RightLeg
    {
      OFFSET 0 -44.4227 1.3727
      CHANNELS 3 Zrotation Xrotation Yrotation
      JOINT RightFoot
      {
        OFFSET 0.253549 -42.0924 -1.46059
        CHANNELS 3 Zrotation Xrotation Yrotation
        JOINT RightToes
        {
          OFFSET 0.04 -4.41509 8.4991
          CHANNELS 3 Zrotation Xrotation Yrotation
          End Site
          {
            OFFSET -0.08 -0.137448 9.77979
          }
        }
      }
    }
  }
}
MOTION
Frames:	9
Frame Time:	0.0333333
68.9659 95.6426 4.74007 4.99368 1.62147 -94.758 0.695315 -34.7599 3.46155 1.20849 41.4885 17.7623 -1.46221 -15.8941 -0.0255395 -1.35366e-009 8.75215e-006 -1.47098e-008 12.8998 39.7006 -3.6628 -1.97464 10.7712 0.858395 25.0253 1.7894 1.52731 59.6719 -18.0371 51.3654 11.825 43.5543 -0.331329 -13.828 9.10037 1.6711 -41.6998 3.14629 -3.03436 -30.1113 -9.5334 -29.305 -5.63016 33.2002 -14.4129 5.82328 9.61819 -0.917488 -7.581 -39.292 -14.2483 2.93344 -32.152 -6.23664 -1.24652 40.3106 -18.1487 2.66038 -17.8527 0.00216669 0.0462048 0.000530889 0.662642 
70.2022 93.7681 4.88858 6.16851 1.85202 -94.4841 1.23306 -39.6951 3.98801 1.2951 46.6715 17.1794 -1.60166 -17.4484 -0.048606 -1.35366e-009 8.75215e-006 -1.47098e-008 13.8274 41.8098 -4.0414 -1.2995 11.5526 0.806362 24.4716 1.78179 1.58945 60.3412 -18.7342 55.5507 12.8598 43.9765 -3.54323 -13.8707 9.11032 1.55981 -41.5575 3.1155 -2.99114 -30.7679 -10.9451 -33.6469 -7.67828 36.1737 -11.5838 5.82328 9.61819 -0.917488 -8.46078 -40.7192 -14.5007 2.8149 -37.0076 -6.71198 -1.36033 45.5843 -18.0831 3.05767 -19.5316 0.0735345 0.0462048 0.000530889 0.662642 
71.3532 91.7136 4.98264 7.13285 1.74255 -94.298 1.46071 -44.3801 4.54004 1.41657 51.7495 16.7519 -1.75177 -18.8987 -0.0758687 -1.35366e-009 8.75215e-006 -1.47098e-008 13.976 44.1575 -4.10994 -0.419172 12.2259 0.806277 23.9592 1.77484 1.64897 61.1704 -19.6376 59.4015 13.7134 44.6476 -6.56821 -14.1203 9.09557 1.55596 -41.7859 3.10776 -2.94201 -31.6207 -12.6239 -37.7223 -9.60347 38.6408 -8.9107 5.82328 9.61819 -0.917488 -9.13783 -42.0294 -14.7599 2.20877 -41.7432 -7.40425 -1.51445 50.9961 -17.8831 3.32622 -21.2076 0.141769 0.0462048 0.000530889 0.662642 
72.3754 89.4818 5.02917 7.88885 1.48736 -94.2072 1.61627 -48.8518 5.10621 1.5933 56.8871 16.4141 -2.01582 -20.3205 -0.119704 -1.35366e-009 8.75215e-006 -1.47098e-008 14.1748 46.5438 -4.38018 -0.20045 12.9288 0.86343 23.1419 1.77074 1.77091 62.4372 -20.1651 62.5755 14.5695 45.622 -9.49331 -14.9503 9.0529 1.49364 -41.4587 3.07891 -2.92912 -33.3075 -14.5392 -41.3966 -11.0359 41.3529 -6.64425 5.82328 9.61819 -0.917488 -9.20112 -43.3938 -14.7878 1.5458 -46.3246 -7.84155 -1.74606 56.52 -17.9391 3.65227 -22.7929 0.224359 0.0462048 0.000530889 0.662642 
73.2523 87.0589 5.04291 8.16812 1.47337 -93.9238 1.71155 -52.8926 5.19671 1.86491 62.225 16.1179 -2.34559 -21.8068 -0.179736 -1.35366e-009 8.75215e-006 -1.47098e-008 15.0666 49.1053 -5.1932 -0.328594 13.643 0.858899 22.4133 1.77748 1.92031 62.8442 -20.1506 64.8699 15.8138 46.8797 -12.1486 -15.4588 9.0551 1.22912 -40.6732 3.03113 -2.94234 -34.9673 -15.886 -44.7536 -12.3782 44.1049 -4.53301 5.82328 9.61819 -0.917488 -9.15698 -44.7226 -14.8086 1.12291 -50.354 -8.0933 -2.09686 62.0816 -18.2549 4.29274 -24.4815 0.368123 0.0462048 0.000530889 0.662642 
74.0098 84.457 5.02636 7.7709 1.70693 -93.3381 1.4553 -56.3031 4.53148 2.29947 67.7231 15.7976 -2.68248 -23.3222 -0.250629 -1.35366e-009 8.75215e-006 -1.47098e-008 16.1311 52.0141 -6.12566 0.202638 14.2591 0.767968 22.151 1.79541 2.03019 61.7485 -20.0815 66.1998 16.9756 48.3287 -13.3659 -14.7957 9.14076 0.834202 -40.5468 3.00483 -2.90497 -35.2761 -16.2705 -47.8515 -14.1383 45.9991 -2.25064 5.82328 9.61819 -0.917488 -9.62989 -45.735 -15.1545 0.758201 -53.6112 -8.45667 -2.64778 67.6881 -18.5207 5.2444 -26.3333 0.591166 0.0462048 0.000530889 0.662642 
74.6779 81.6973 4.98835 6.9788 1.86197 -92.7345 0.878498 -59.3318 3.65349 3.04013 73.2513 15.2237 -3.06879 -24.7993 -0.338174 -1.35366e-009 8.75215e-006 -1.47098e-008 16.9112 54.884 -6.92745 1.00166 14.9071 0.685044 22.1861 1.81666 2.0982 60.562 -20.1837 66.749 17.8066 49.7956 -13.8046 -13.7553 9.22054 0.63044 -40.9134 2.99335 -2.82762 -35.1435 -16.5383 -50.6384 -16.0302 47.3087 0.107976 5.82328 9.61819 -0.917488 -10.1193 -46.4195 -15.525 0.264775 -56.5121 -8.87701 -3.61136 73.3898 -18.427 6.14563 -28.0612 0.832263 0.0462048 0.000530889 0.662642 
75.2598 78.7767 4.95553 6.22826 1.81119 -92.3613 0.317082 -62.4021 3.16843 4.51291 78.7238 13.9094 -3.51064 -26.2701 -0.44579 -1.35366e-009 8.75215e-006 -1.47098e-008 17.6873 57.0992 -7.91088 0.994974 15.8871 0.625534 22.1962 1.83602 2.16403 60.486 -20.0618 66.9754 18.5019 51.5701 -14.3047 -13.8408 9.19743 0.791859 -40.5809 2.97025 -2.82644 -36.0883 -17.365 -52.9142 -17.4305 48.8477 2.10743 5.82328 9.61819 -0.917488 -9.93183 -47.0445 -15.3985 -0.268088 -59.5797 -9.14889 -5.63588 79.1503 -17.337 6.80779 -29.525 1.04104 0.0462048 0.000530889 0.662642 
75.7485 75.6995 4.93469 5.5129 1.6792 -92.085 -0.303498 -65.5047 2.81036 8.67333 84.0851 9.96124 -3.89089 -27.7775 -0.55574 -1.35366e-009 8.75215e-006 -1.47098e-008 18.1935 58.6377 -8.80514 0.767516 17.2456 0.48965 22.1431 1.8547 2.23941 60.5041 -19.4649 67.1146 19.6389 53.9058 -15.1075 -15.1673 9.08721 1.10682 -39.9152 2.95035 -2.87994 -36.8918 -18.0366 -54.4792 -18.221 50 3.31128 5.82328 9.61819 -0.917488 -9.67005 -47.6563 -14.9756 -0.895247 -62.719 -9.49011 -12.0698 84.8166 -11.7583 7.53209 -31.0342 1.2862 0.0462048 0.000530889 0.662642 
